<?xml version="1.0" encoding="UTF-8" standalone="no"?>
<!-- Created with Inkscape (http://www.inkscape.org/) -->

<svg
   xmlns:dc="http://purl.org/dc/elements/1.1/"
   xmlns:cc="http://creativecommons.org/ns#"
   xmlns:rdf="http://www.w3.org/1999/02/22-rdf-syntax-ns#"
   xmlns:svg="http://www.w3.org/2000/svg"
   xmlns="http://www.w3.org/2000/svg"
   xmlns:xlink="http://www.w3.org/1999/xlink"
   xmlns:sodipodi="http://sodipodi.sourceforge.net/DTD/sodipodi-0.dtd"
   xmlns:inkscape="http://www.inkscape.org/namespaces/inkscape"
   width="1016mm"
   height="571.5mm"
   viewBox="0 0 1016 571.5"
   version="1.1"
   id="svg8"
   inkscape:export-filename="/home/neoman/bitmap.png"
   inkscape:export-xdpi="96"
   inkscape:export-ydpi="96"
   inkscape:version="0.92.2 2405546, 2018-03-11"
   sodipodi:docname="1.svg">
  <defs
     id="defs2">
    <linearGradient
       inkscape:collect="always"
       id="linearGradient868">
      <stop
         style="stop-color:#00ff00;stop-opacity:1"
         offset="0"
         id="stop864" />
      <stop
         style="stop-color:#008080;stop-opacity:1"
         offset="1"
         id="stop866" />
    </linearGradient>
    <linearGradient
       inkscape:collect="always"
       xlink:href="#linearGradient868"
       id="linearGradient870"
       x1="-70.477135"
       y1="17.603369"
       x2="74.415009"
       y2="162.49551"
       gradientUnits="userSpaceOnUse"
       gradientTransform="matrix(0.93134697,0.93134697,-0.93134697,0.93134697,327.80715,-135.3524)" />
  </defs>
  <sodipodi:namedview
     id="base"
     pagecolor="#ffffff"
     bordercolor="#666666"
     borderopacity="1.0"
     inkscape:pageopacity="0.0"
     inkscape:pageshadow="2"
     inkscape:zoom="0.175"
     inkscape:cx="2667.6243"
     inkscape:cy="1183.8673"
     inkscape:document-units="mm"
     inkscape:current-layer="layer1"
     showgrid="false"
     inkscape:snap-nodes="true"
     fit-margin-top="0"
     fit-margin-left="0"
     fit-margin-right="0"
     fit-margin-bottom="0"
     inkscape:window-width="1360"
     inkscape:window-height="738"
     inkscape:window-x="0"
     inkscape:window-y="30"
     inkscape:window-maximized="1" />
  <metadata
     id="metadata5">
    <rdf:RDF>
      <cc:Work
         rdf:about="">
        <dc:format>image/svg+xml</dc:format>
        <dc:type
           rdf:resource="http://purl.org/dc/dcmitype/StillImage" />
        <dc:title></dc:title>
      </cc:Work>
    </rdf:RDF>
  </metadata>
  <g
     inkscape:label="Layer 1"
     inkscape:groupmode="layer"
     id="layer1"
     transform="translate(262.22583,334.58511)">
    <rect
       style="opacity:1;fill:#262831;fill-opacity:1;stroke:none;stroke-width:0.52916664;stroke-linecap:round;stroke-linejoin:round;stroke-miterlimit:4;stroke-dasharray:none;stroke-dashoffset:0;stroke-opacity:1;paint-order:markers fill stroke"
       id="rect884"
       width="1016"
       height="571.5"
       x="-262.22583"
       y="-334.58511" />
    <path
       style="opacity:1;fill:url(#linearGradient870);fill-opacity:1;stroke:none;stroke-width:0.52916664;stroke-linecap:round;stroke-linejoin:round;stroke-miterlimit:4;stroke-dasharray:none;stroke-dashoffset:0;stroke-opacity:1;paint-order:markers fill stroke"
       d="m 207.8219,-182.96388 c 0.51555,2.49391 0.81644,4.9411 0.9318,7.34958 0.74121,15.47147 -6.16059,29.31266 -12.85257,43.45358 -6.69199,14.14093 -13.17525,28.58061 -11.63558,45.25659 0.21646,2.344857 0.592,4.735401 1.14755,7.174651 0.11055,0.485111 0.23036,0.972918 0.3553,1.462019 L 159.87949,-0.60070616 245.77384,85.293647 331.66887,-0.60070616 305.77996,-78.26746 c 0.12493,-0.489101 0.2448,-0.976908 0.3553,-1.462019 0.55562,-2.439477 0.93039,-4.829587 1.14688,-7.174651 1.53965,-16.67598 -4.94292,-31.11566 -11.63491,-45.25659 -6.69199,-14.14092 -13.59445,-27.98211 -12.85325,-43.45358 0.11538,-2.40848 0.41626,-4.85567 0.93181,-7.34958 -20.02935,18.62328 -27.26043,34.30732 -27.94514,48.59923 -0.73868,15.41915 6.14538,29.23515 12.83828,43.378028 6.69293,14.142883 13.19341,28.613974 11.64919,45.339632 -0.19302,2.090706 -0.51153,4.216573 -0.97127,6.381024 -0.241,1.134676 -0.52784,2.282028 -0.84877,3.438605 a 41.797946,41.797946 0 0 0 -32.67356,-15.798394 41.797946,41.797946 0 0 0 -32.6865,15.752791 c -0.31566,-1.14104 -0.5987,-2.273294 -0.8365,-3.393002 -0.45975,-2.164451 -0.77895,-4.290318 -0.97195,-6.381024 -1.54422,-16.725658 4.95694,-31.196749 11.64987,-45.339632 6.6929,-14.142878 13.57695,-27.958878 12.83827,-43.378028 -0.68471,-14.29191 -7.91647,-29.97595 -27.94581,-48.59923 z m 82.51563,134.072949 2.483,20.031989 c 2.4558,6.044999 3.72359,12.506653 3.73399,19.0314331 -2.6e-4,28.0448069 -22.7352,50.7794619 -50.78,50.7793449 -28.04479,1.17e-4 -50.77973,-22.734553 -50.78001,-50.7793449 0.0118,-6.5220491 1.27923,-12.9808101 3.734,-19.0232671 l 2.48367,-20.039476 c 3.32488,4.242512 7.21513,8.636332 11.73699,13.196977 a 41.797946,41.797946 0 0 0 -8.9729,25.8657661 41.797946,41.797946 0 0 0 41.79825,41.7975739 41.797946,41.797946 0 0 0 41.79757,-41.7975739 41.797946,41.797946 0 0 0 -9.00081,-25.8371791 c 4.53424,-4.571151 8.43429,-8.97463 11.76625,-13.226243 z m -58.73535,18.15818 c -0.15148,0.732869 -0.23973,1.451909 -0.27361,2.159677 -0.21783,4.546486 1.81035,8.614051 3.77688,12.76954 1.96652,4.155489 3.87132,8.3986205 3.41887,13.2990685 -0.0636,0.6891292 -0.17364,1.3910597 -0.33692,2.10794956 -0.8741,3.83786314 -3.26846,8.09611534 -8.16703,13.01730794 0.10805,-0.37949 0.20152,-0.754986 0.28042,-1.126475 0.13506,-0.636074 0.22849,-1.26011 0.2852,-1.8744861 0.45377,-4.9150705 -1.45615,-9.16819916 -3.42295,-13.3242755 -1.9668,-4.1560616 -3.98988,-8.2159514 -3.77281,-12.7470694 0.20122,-4.199853 2.32607,-8.808544 8.21195,-14.281237 z m 28.344,0 c 5.88588,5.472693 8.01073,10.081384 8.21194,14.281237 0.21708,4.531118 -1.806,8.5910078 -3.7728,12.7470694 -1.96679,4.15607634 -3.87673,8.409205 -3.42295,13.3242755 0.0567,0.6143761 0.1501,1.2391171 0.2852,1.8751621 0.0788,0.371474 0.17238,0.746324 0.28043,1.125799 -4.89856,-4.9211633 -7.29294,-9.1794301 -8.16704,-13.01730794 -0.16328,-0.71686056 -0.27398,-1.41882036 -0.33759,-2.10794956 -0.45245,-4.900448 1.45301,-9.1435795 3.41954,-13.2990685 1.96652,-4.155489 3.9947,-8.22305 3.77688,-12.76954 -0.0339,-0.707765 -0.12214,-1.426808 -0.27361,-2.159677 z"
       id="rect33"
       inkscape:connector-curvature="0" />
  </g>
</svg>
